<svg xmlns="http://www.w3.org/2000/svg" xmlns:xlink="http://www.w3.org/1999/xlink" width="1024" zoomAndPan="magnify" viewBox="0 0 768 767.999994" height="1024" preserveAspectRatio="xMidYMid meet" version="1.0"><defs><clipPath id="1b389da3bc"><path d="M 240 94.621094 L 678.964844 94.621094 L 678.964844 593 L 240 593 Z M 240 94.621094 " clip-rule="nonzero"/></clipPath><clipPath id="26da416f43"><path d="M 97 329 L 354 329 L 354 673.621094 L 97 673.621094 Z M 97 329 " clip-rule="nonzero"/></clipPath><clipPath id="a07ad494e9"><path d="M 189 217 L 579 217 L 579 551 L 189 551 Z M 189 217 " clip-rule="nonzero"/></clipPath><clipPath id="e9613767c1"><path d="M 164.214844 425.683594 L 487.734375 185.804688 L 603.878906 342.445312 L 280.359375 582.324219 Z M 164.214844 425.683594 " clip-rule="nonzero"/></clipPath><clipPath id="4c3bd9862b"><path d="M 164.214844 425.683594 L 487.734375 185.804688 L 603.878906 342.445312 L 280.359375 582.324219 Z M 164.214844 425.683594 " clip-rule="nonzero"/></clipPath></defs><rect x="-76.8" width="921.6" fill="#ffffff" y="-76.799999" height="921.599993" fill-opacity="1"/><rect x="-76.8" width="921.6" fill="#ff5757" y="-76.799999" height="921.599993" fill-opacity="1"/><g clip-path="url(#1b389da3bc)"><path fill="#ffffff" d="M 387.070312 94.871094 C 392.027344 94.871094 395.605469 94.824219 399.160156 94.871094 C 407.875 94.988281 416.5 95.996094 425.125 97.003906 C 447.515625 99.597656 469.125 105.171875 490.226562 112.972656 C 517.664062 123.132812 542.941406 137.171875 566.109375 155.019531 C 580.609375 166.167969 593.957031 178.554688 606.046875 192.269531 C 622.265625 210.644531 635.960938 230.761719 647.085938 252.625 C 654.976562 268.132812 661.539062 284.164062 666.515625 300.796875 C 669.863281 311.96875 672.753906 323.300781 674.566406 334.90625 C 675.941406 343.667969 677 352.433594 677.894531 361.242188 C 679.085938 373.285156 679.246094 385.328125 678.742188 397.347656 C 678.261719 408.886719 677 420.378906 675.140625 431.824219 C 667.132812 481.050781 647.683594 525.210938 617.195312 564.597656 C 609.671875 574.300781 601.460938 583.40625 592.765625 592.101562 C 591.253906 593.589844 590.65625 593.019531 589.738281 591.734375 C 586.457031 587.214844 586.503906 587.304688 590.402344 583.292969 C 617.195312 555.648438 638.023438 524.132812 651.996094 488.140625 C 656.398438 476.808594 660.253906 465.316406 663.167969 453.546875 C 665.367188 444.578125 667.203125 435.519531 668.464844 426.34375 C 669.933594 415.746094 670.917969 405.125 671.332031 394.410156 C 671.515625 389.410156 671.953125 384.363281 671.628906 379.386719 C 671.058594 370.625 670.691406 361.859375 669.636719 353.121094 C 667.984375 339.242188 665.414062 325.617188 661.859375 312.128906 C 657.957031 297.378906 652.84375 283.066406 646.535156 269.140625 C 634.949219 243.515625 619.902344 220.097656 601.34375 198.96875 C 575.308594 169.308594 544.480469 145.980469 508.808594 129.050781 C 493.484375 121.78125 477.566406 116 461.234375 111.59375 C 449.96875 108.566406 438.5 106.179688 426.871094 104.734375 C 418.957031 103.75 411.042969 103.105469 403.128906 102.488281 C 394.527344 101.824219 385.925781 101.890625 377.367188 102.191406 C 369.796875 102.464844 362.203125 103.128906 354.65625 104.140625 C 346.722656 105.21875 338.828125 106.480469 330.984375 108.039062 C 318.597656 110.492188 306.441406 113.84375 294.535156 118.039062 C 277.695312 123.957031 261.570312 131.390625 246.179688 140.40625 C 245.375 140.886719 244.941406 140.910156 244.160156 140.199219 C 239.640625 135.910156 239.664062 135.453125 245.03125 132.421875 C 266.546875 120.265625 289.257812 110.976562 313.113281 104.53125 C 324.402344 101.476562 335.847656 99.09375 347.476562 97.578125 C 354.566406 96.660156 361.65625 96.085938 368.742188 95.355469 C 375.324219 94.621094 381.886719 95.261719 387.070312 94.871094 Z M 387.070312 94.871094 " fill-opacity="1" fill-rule="nonzero"/></g><path fill="#ffffff" d="M 650.320312 381.75 C 650.25 391.382812 650.59375 398.539062 649.722656 405.628906 C 648.394531 416.410156 647.222656 427.191406 645 437.878906 C 640.113281 461.210938 632.265625 483.414062 621.460938 504.585938 C 611.804688 523.511719 599.945312 540.945312 586 556.980469 C 566.636719 579.230469 544.179688 597.675781 518.582031 612.285156 C 501.882812 621.804688 484.378906 629.421875 465.980469 635.109375 C 452.792969 639.195312 439.417969 642.453125 425.746094 644.355469 C 417.945312 645.433594 410.078125 646.191406 402.1875 646.695312 C 394.410156 647.199219 386.636719 647.199219 378.882812 646.992188 C 367.824219 646.695312 356.835938 645.386719 345.894531 643.734375 C 335.550781 642.175781 325.363281 639.882812 315.363281 637.039062 C 295.566406 631.417969 276.664062 623.550781 258.703125 613.457031 C 238.058594 601.871094 219.339844 587.742188 202.457031 571.179688 C 198.878906 567.671875 198.902344 567.832031 202.914062 564.78125 C 204.566406 563.519531 205.394531 563.863281 206.699219 565.148438 C 224.132812 582.648438 243.703125 597.308594 265.378906 609.167969 C 284.328125 619.535156 304.285156 627.378906 325.25 632.609375 C 337.660156 635.707031 350.183594 638.160156 362.984375 639.054688 C 368.167969 639.421875 373.332031 639.769531 378.515625 640.089844 C 382.527344 640.339844 386.519531 640.683594 390.535156 640.5 C 404.78125 639.835938 419.003906 638.894531 433.0625 636.28125 C 446.917969 633.710938 460.523438 630.246094 473.734375 625.5 C 497.269531 617.035156 519.152344 605.359375 539.292969 590.472656 C 556.84375 577.511719 572.488281 562.578125 586.273438 545.648438 C 599.050781 529.957031 609.855469 513.027344 618.640625 494.816406 C 625.179688 481.257812 630.339844 467.195312 634.445312 452.722656 C 637.75 441.113281 640.089844 429.300781 641.808594 417.394531 C 642.660156 411.546875 642.773438 405.605469 643.324219 399.734375 C 643.964844 393.171875 643.898438 386.589844 643.78125 380.003906 C 643.53125 362.800781 641.488281 345.804688 637.816406 328.964844 C 633.78125 310.363281 627.566406 292.539062 619.582031 275.289062 C 616.578125 268.820312 613.25 262.511719 609.625 256.363281 C 608.617188 254.644531 608.960938 253.816406 610.292969 252.855469 C 610.660156 252.578125 611.046875 252.324219 611.347656 251.980469 C 613.183594 250.007812 614.191406 250.515625 615.476562 252.808594 C 626.785156 272.671875 635.5 293.59375 641.464844 315.636719 C 644.539062 327.015625 646.949219 338.53125 648.324219 350.277344 C 649.609375 361.539062 650.664062 372.847656 650.320312 381.75 Z M 650.320312 381.75 " fill-opacity="1" fill-rule="nonzero"/><g clip-path="url(#26da416f43)"><path fill="#ffffff" d="M 102.96875 329.195312 C 104.804688 329.8125 106.527344 330.160156 107.992188 330.9375 C 110.539062 332.269531 109.988281 334.632812 109.554688 336.878906 C 107.832031 345.664062 106.847656 354.519531 106.179688 363.464844 C 105.515625 372.207031 104.941406 380.921875 105.195312 389.683594 C 105.46875 399.113281 106.226562 408.519531 107.257812 417.902344 C 108.703125 431.113281 111.25 444.097656 114.53125 456.941406 C 119.53125 476.511719 126.804688 495.226562 135.980469 513.210938 C 150.179688 541.0625 168.507812 565.902344 190.871094 587.71875 C 209.039062 605.449219 229.226562 620.476562 251.433594 632.792969 C 268.339844 642.175781 285.976562 649.816406 304.46875 655.480469 C 316.601562 659.195312 328.851562 662.292969 341.398438 664.265625 C 342.546875 664.449219 343.714844 664.609375 344.863281 664.839844 C 346.675781 665.183594 348.394531 665.664062 349.429688 667.683594 C 350.4375 669.65625 351.996094 671.332031 353.050781 673.464844 C 270.105469 661.859375 202.410156 623.824219 153.160156 555.648438 C 104.070312 487.679688 88.816406 411.617188 102.96875 329.195312 Z M 102.96875 329.195312 " fill-opacity="1" fill-rule="nonzero"/></g><path fill="#ffffff" d="M 442.171875 126.78125 C 439.441406 128.707031 437.285156 130.058594 435.335938 131.667969 C 434.027344 132.746094 432.855469 131.941406 431.710938 131.757812 C 423.636719 130.359375 415.539062 129.511719 407.371094 128.84375 C 399.089844 128.179688 390.808594 127.605469 382.507812 127.925781 C 371.886719 128.339844 361.265625 129.164062 350.734375 130.703125 C 338.234375 132.515625 325.960938 135.222656 313.871094 138.871094 C 280.199219 149.054688 249.941406 165.546875 222.988281 188.140625 C 198.050781 209.039062 177.890625 233.859375 162.335938 262.375 C 151.992188 281.320312 144.078125 301.277344 139.167969 322.359375 C 138.570312 324.882812 137.449219 325.410156 135.40625 324.605469 C 134.234375 324.148438 133.042969 324.46875 131.414062 324.035156 C 149.628906 252.441406 189.199219 196.402344 252.761719 158.460938 C 311.304688 123.5 374.546875 113.773438 442.171875 126.78125 Z M 442.171875 126.78125 " fill-opacity="1" fill-rule="nonzero"/><g clip-path="url(#a07ad494e9)"><g clip-path="url(#e9613767c1)"><g clip-path="url(#4c3bd9862b)"><path fill="#ffffff" d="M 486.703125 221.574219 L 460.941406 240.679688 L 457.273438 235.730469 C 450.058594 226.003906 436.277344 223.957031 426.550781 231.171875 L 410.542969 243.039062 C 400.816406 250.25 398.769531 264.03125 405.984375 273.761719 L 433.308594 310.609375 L 295.507812 412.785156 C 293.332031 414.398438 292.875 417.472656 294.488281 419.648438 L 354.121094 500.074219 C 358.109375 505.453125 356.980469 513.078125 351.597656 517.066406 L 335.59375 528.933594 C 330.210938 532.921875 322.589844 531.792969 318.601562 526.410156 L 228.722656 405.195312 C 224.730469 399.8125 225.863281 392.191406 231.246094 388.203125 L 247.25 376.335938 C 252.628906 372.34375 260.253906 373.476562 264.242188 378.855469 L 281.972656 402.769531 C 283.585938 404.945312 286.660156 405.402344 288.835938 403.785156 C 291.011719 402.171875 291.46875 399.097656 289.855469 396.921875 L 272.125 373.011719 C 264.914062 363.285156 251.132812 361.238281 241.402344 368.449219 L 225.398438 380.316406 C 215.671875 387.53125 213.625 401.3125 220.835938 411.039062 L 301.203125 519.425781 L 275.4375 538.527344 C 270.058594 542.519531 262.4375 541.386719 258.445312 536.007812 L 202.066406 459.96875 C 198.078125 454.585938 199.207031 446.964844 204.589844 442.972656 L 218.175781 432.902344 C 220.351562 431.285156 220.808594 428.210938 219.195312 426.035156 C 217.578125 423.859375 214.503906 423.402344 212.328125 425.015625 L 198.742188 435.089844 C 189.015625 442.304688 186.96875 456.085938 194.183594 465.8125 L 250.5625 541.851562 C 257.773438 551.578125 271.558594 553.625 281.285156 546.414062 L 307.046875 527.308594 L 310.714844 532.257812 C 317.929688 541.984375 331.710938 544.03125 341.4375 536.816406 L 357.445312 524.949219 C 367.171875 517.738281 369.21875 503.957031 362.003906 494.226562 L 334.679688 457.378906 L 455.78125 367.585938 C 457.957031 365.972656 458.414062 362.898438 456.800781 360.722656 C 455.1875 358.542969 452.113281 358.085938 449.933594 359.703125 L 328.835938 449.492188 L 305.296875 417.746094 L 439.152344 318.496094 L 495.863281 394.976562 C 503.074219 404.707031 516.855469 406.75 526.585938 399.539062 L 542.589844 387.671875 C 552.316406 380.457031 554.363281 366.675781 547.152344 356.949219 L 543.484375 352 L 569.246094 332.898438 C 578.972656 325.6875 581.019531 311.902344 573.808594 302.175781 L 517.425781 226.136719 C 510.214844 216.410156 496.433594 214.363281 486.703125 221.574219 Z M 565.921875 308.023438 C 569.914062 313.402344 568.78125 321.023438 563.402344 325.015625 L 533.695312 347.039062 C 531.519531 348.65625 531.0625 351.726562 532.675781 353.90625 L 539.265625 362.792969 C 543.257812 368.175781 542.125 375.796875 536.746094 379.785156 L 520.738281 391.65625 C 515.359375 395.644531 507.734375 394.511719 503.746094 389.132812 L 413.867188 267.914062 C 409.878906 262.535156 411.011719 254.910156 416.390625 250.921875 L 432.394531 239.054688 C 437.777344 235.066406 445.398438 236.195312 449.390625 241.578125 L 520.144531 337.003906 C 521.757812 339.179688 524.832031 339.636719 527.007812 338.019531 C 529.183594 336.40625 529.640625 333.332031 528.027344 331.15625 L 466.785156 248.5625 L 492.550781 229.460938 C 497.929688 225.46875 505.554688 226.601562 509.542969 231.984375 Z M 565.921875 308.023438 " fill-opacity="1" fill-rule="nonzero"/></g></g></g></svg>